# xmcd
#
# Track frame offsets:
#	150
#	10725
#	22950
#	33075
#	43200
#	52575
#	65985
#	77528
#	89311
#	101386
#	112711
#	124486
#
# Disc length: 1790 seconds
#
# Revision: 1
# Processed by: cddbd v1.5.2PL0 Copyright (c) Steve Scherf et al.
# Submitted via: audiograbber 1.83.01
#
DISCID=8706fc0c
DTITLE=George Jones and Melba Montgomery - Blue Moon Of Kentucky
DYEAR=1966
DGENRE=Country
TTITLE0=Blue Moon Of Kentucky
TTITLE1=Hall Of Shame
TTITLE2=Wait A Little Longer
TTITLE3=Magic Valley
TTITLE4=I'll Be There To Welcome You Home
TTITLE5=Before She Changed Your Mind
TTITLE6=I Let You Go
TTITLE7=You Comb Her Hair
TTITLE8=Now Tell Me
TTITLE9=Don't Make Me Build Another Wall
TTITLE10=What's In Our Hearts
TTITLE11=There's No Justice
EXTD=
EXTT0=
EXTT1=
EXTT2=
EXTT3=
EXTT4=
EXTT5=
EXTT6=
EXTT7=
EXTT8=
EXTT9=
EXTT10=
EXTT11=
PLAYORDER=
